<?xml version="1.0" standalone="no"?>
<!DOCTYPE svg PUBLIC "-//W3C//DTD SVG 20010904//EN"
 "http://www.w3.org/TR/2001/REC-SVG-20010904/DTD/svg10.dtd">
<svg version="1.0" xmlns="http://www.w3.org/2000/svg"
 width="512.000000pt" height="512.000000pt" viewBox="0 0 512.000000 512.000000"
 preserveAspectRatio="xMidYMid meet">

<g transform="translate(0.000000,512.000000) scale(0.100000,-0.100000)"
fill="#000000" stroke="none">
<path d="M444 5101 c-52 -32 -74 -68 -74 -122 0 -42 5 -55 34 -87 l34 -37 256
-5 256 -5 26 -26 c36 -36 36 -92 0 -128 l-26 -26 -338 -5 c-301 -4 -341 -7
-365 -23 -85 -55 -84 -167 2 -224 33 -22 41 -23 273 -23 l240 0 29 -29 c35
-35 39 -86 10 -122 l-19 -24 -344 -5 c-310 -4 -347 -7 -371 -23 -92 -60 -85
-186 13 -238 32 -17 62 -19 353 -19 223 0 325 -3 340 -12 63 -33 64 -103 4
-160 -1 -1 -136 -4 -299 -7 -279 -6 -298 -7 -325 -27 -41 -30 -67 -87 -58
-130 9 -49 61 -103 110 -114 22 -5 282 -10 578 -10 l538 0 24 -26 c47 -51 37
-79 -77 -220 -186 -227 -188 -231 -188 -279 0 -60 43 -105 101 -105 22 0 50 5
62 11 12 6 231 219 487 474 308 307 480 471 510 486 42 22 58 24 237 27 l191
4 -9 31 c-33 117 34 257 152 316 53 27 73 31 138 31 95 0 137 -19 240 -103 42
-35 82 -66 89 -71 9 -6 12 77 12 398 l0 406 -462 0 -463 0 -50 24 c-27 13
-133 73 -235 135 l-185 111 -710 0 c-678 0 -711 -1 -741 -19z"/>
<path d="M4014 5106 c-17 -7 -42 -29 -55 -47 -24 -34 -24 -35 -29 -374 -3
-187 -7 -341 -8 -342 -57 -59 -108 -59 -164 0 -1 1 -4 136 -7 299 -6 279 -7
298 -27 325 -30 41 -87 67 -130 58 -49 -9 -103 -61 -114 -110 -5 -22 -10 -282
-10 -577 0 -522 -1 -539 -20 -558 -25 -25 -66 -35 -96 -24 -13 5 -92 65 -176
134 -176 145 -182 149 -226 150 -66 0 -111 -42 -112 -105 0 -22 7 -52 16 -65
9 -14 223 -232 474 -485 303 -304 466 -475 481 -505 22 -42 24 -58 27 -235 l3
-190 79 3 c67 4 87 0 133 -21 110 -50 170 -143 171 -262 0 -89 -23 -142 -107
-243 -35 -43 -66 -83 -71 -89 -6 -10 77 -13 398 -13 l406 0 0 463 0 462 24 50
c13 28 73 133 135 235 l111 185 0 708 c0 776 3 737 -60 791 -25 20 -42 26 -81
26 -42 0 -55 -5 -87 -34 l-37 -34 -5 -256 -5 -256 -26 -26 c-36 -36 -92 -36
-128 0 l-26 26 -5 340 c-5 322 -6 340 -26 367 -11 15 -37 36 -58 47 -49 24
-97 15 -144 -29 l-37 -33 -5 -257 -5 -257 -28 -24 c-34 -29 -85 -32 -118 -5
l-24 19 -5 344 c-4 306 -7 347 -23 371 -37 56 -114 80 -173 53z"/>
<path d="M270 2828 l0 -463 -24 -50 c-13 -27 -73 -133 -135 -235 l-111 -185 0
-708 c0 -776 -3 -737 60 -791 25 -20 42 -26 81 -26 42 0 55 5 87 34 l37 34 5
256 5 256 26 26 c36 36 92 36 128 0 l26 -26 5 -338 c4 -301 7 -341 23 -365 55
-85 167 -84 224 2 22 33 23 41 23 273 l0 240 29 29 c35 35 86 39 122 10 l24
-19 5 -344 c5 -339 5 -343 28 -376 58 -81 166 -80 225 2 22 30 22 38 25 351 1
176 4 330 7 342 8 36 45 63 85 63 31 0 52 -11 82 -43 1 -1 4 -136 7 -299 6
-279 7 -298 27 -325 30 -41 87 -67 130 -58 49 9 103 61 114 110 5 22 10 282
10 578 l0 538 25 24 c29 30 79 33 115 8 14 -9 86 -67 160 -128 175 -144 177
-145 226 -145 34 0 49 6 73 31 27 26 31 38 31 82 l0 51 -474 475 c-314 315
-482 491 -497 521 -22 42 -24 58 -27 236 l-4 192 -36 -10 c-112 -31 -259 41
-320 156 -22 43 -27 64 -27 131 0 96 16 132 109 245 34 41 65 81 70 88 6 9
-77 12 -398 12 l-406 0 0 -462z"/>
<path d="M3870 2264 c-14 -9 -232 -223 -485 -474 -303 -302 -475 -466 -505
-481 -42 -22 -58 -24 -236 -27 l-192 -4 10 -36 c33 -119 -43 -262 -170 -320
-47 -21 -64 -24 -136 -20 -96 5 -123 17 -226 102 -41 34 -81 65 -87 70 -10 6
-13 -77 -13 -398 l0 -406 463 0 462 0 50 -24 c28 -13 133 -73 235 -135 l185
-111 708 0 c776 0 737 -3 791 60 20 25 26 42 26 81 0 42 -5 55 -34 87 l-34 37
-256 5 -256 5 -26 26 c-36 36 -36 92 0 128 l26 26 338 5 c301 4 341 7 365 23
85 55 84 167 -2 224 -33 22 -41 23 -273 23 l-240 0 -29 29 c-35 35 -39 86 -10
122 l19 24 344 5 345 5 36 28 c73 55 73 159 0 214 l-36 28 -341 5 c-188 3
-342 7 -343 8 -59 57 -59 108 0 164 1 1 136 4 299 7 279 6 298 7 325 27 41 30
67 87 58 130 -9 49 -61 103 -110 114 -22 5 -282 10 -577 10 -522 0 -539 1
-558 20 -25 25 -35 66 -24 96 5 13 65 92 134 176 148 180 149 181 150 235 0
59 -44 103 -104 103 -23 0 -53 -7 -66 -16z"/>
</g>
</svg>
